<?xml version="1.0" encoding="iso-8859-1"?>
<!-- Generator: Adobe Illustrator 19.0.0, SVG Export Plug-In . SVG Version: 6.00 Build 0)  -->
<svg version="1.1" id="Layer_1" xmlns="http://www.w3.org/2000/svg" xmlns:xlink="http://www.w3.org/1999/xlink" x="0px" y="0px"
	 viewBox="0 0 489.999 489.999" style="enable-background:new 0 0 489.999 489.999;" xml:space="preserve">
<g>
	<g>
		<g>
			<path d="M398.125,0H91.875c-4.228,0-7.656,3.428-7.656,7.656v474.687c0,4.228,3.428,7.656,7.656,7.656h306.25
				c4.228,0,7.656-3.428,7.656-7.656V7.656C405.782,3.428,402.353,0,398.125,0z M390.469,474.687H99.531V15.313h290.938V474.687z"/>
			<path d="M130.156,229.687h229.687c4.228,0,7.656-3.428,7.656-7.656V45.937c0-4.228-3.428-7.656-7.656-7.656H130.156
				c-4.228,0-7.656,3.428-7.656,7.656v176.094C122.5,226.259,125.927,229.687,130.156,229.687z M137.812,53.593h214.375v160.781
				H137.812V53.593z"/>
			<path d="M359.843,390.469h-91.875c-4.228,0-7.656,3.428-7.656,7.656v45.937c0,4.228,3.428,7.656,7.656,7.656h91.875
				c4.228,0,7.656-3.428,7.656-7.656v-45.937C367.5,393.897,364.072,390.469,359.843,390.469z M352.187,436.406h-76.563v-30.624
				h76.563V436.406z"/>
			<path d="M359.843,321.562h-91.875c-4.228,0-7.656,3.428-7.656,7.656v45.937c0,4.228,3.428,7.656,7.656,7.656h91.875
				c4.228,0,7.656-3.428,7.656-7.656v-45.937C367.5,324.991,364.072,321.562,359.843,321.562z M352.187,367.5h-76.563v-30.624
				h76.563V367.5z"/>
			<path d="M359.843,252.656h-91.875c-4.228,0-7.656,3.428-7.656,7.656v45.937c0,4.228,3.428,7.656,7.656,7.656h91.875
				c4.228,0,7.656-3.428,7.656-7.656v-45.937C367.5,256.085,364.072,252.656,359.843,252.656z M352.187,298.593h-76.563v-30.624
				h76.563V298.593z"/>
			<path d="M130.156,451.718h45.938c4.228,0,7.656-3.428,7.656-7.656v-45.937c0-4.228-3.428-7.656-7.656-7.656h-45.938
				c-4.228,0-7.656,3.428-7.656,7.656v45.937C122.5,448.29,125.927,451.718,130.156,451.718z M137.812,405.781h30.625v30.624
				h-30.625V405.781z"/>
			<path d="M245,390.469h-45.938c-4.228,0-7.656,3.428-7.656,7.656v45.937c0,4.228,3.428,7.656,7.656,7.656H245
				c4.228,0,7.656-3.428,7.656-7.656v-45.937C252.656,393.897,249.228,390.469,245,390.469z M237.344,436.406h-30.625v-30.624
				h30.625V436.406z"/>
			<path d="M130.156,382.812h45.938c4.228,0,7.656-3.428,7.656-7.656v-45.937c0-4.228-3.428-7.656-7.656-7.656h-45.938
				c-4.228,0-7.656,3.428-7.656,7.656v45.937C122.5,379.384,125.927,382.812,130.156,382.812z M137.812,336.875h30.625V367.5
				h-30.625V336.875z"/>
			<path d="M245,321.562h-45.938c-4.228,0-7.656,3.428-7.656,7.656v45.937c0,4.228,3.428,7.656,7.656,7.656H245
				c4.228,0,7.656-3.428,7.656-7.656v-45.937C252.656,324.991,249.228,321.562,245,321.562z M237.344,367.5h-30.625v-30.624h30.625
				V367.5z"/>
			<path d="M130.156,313.906h45.938c4.228,0,7.656-3.428,7.656-7.656v-45.937c0-4.228-3.428-7.656-7.656-7.656h-45.938
				c-4.228,0-7.656,3.428-7.656,7.656v45.937C122.5,310.478,125.927,313.906,130.156,313.906z M137.812,267.969h30.625v30.624
				h-30.625V267.969z"/>
			<path d="M245,252.656h-45.938c-4.228,0-7.656,3.428-7.656,7.656v45.937c0,4.228,3.428,7.656,7.656,7.656H245
				c4.228,0,7.656-3.428,7.656-7.656v-45.937C252.656,256.085,249.228,252.656,245,252.656z M237.344,298.593h-30.625v-30.624
				h30.625V298.593z"/>
			<path d="M283.281,122.499h-30.624V91.875c0-4.228-3.428-7.656-7.656-7.656c-4.228,0-7.656,3.428-7.656,7.656v30.624H206.72
				c-4.228,0-7.656,3.428-7.656,7.656c0,4.228,3.428,7.656,7.656,7.656h30.625v30.625c0,4.228,3.428,7.656,7.656,7.656
				c4.228,0,7.656-3.428,7.656-7.656v-30.625h30.624c4.228,0,7.656-3.428,7.656-7.656
				C290.937,125.928,287.509,122.499,283.281,122.499z"/>
			<path d="M329.219,183.749h-15.313c-4.228,0-7.656,3.428-7.656,7.656c0,4.228,3.428,7.656,7.656,7.656h15.313
				c4.228,0,7.656-3.428,7.656-7.656C336.875,187.177,333.447,183.749,329.219,183.749z"/>
			<path d="M176.094,183.749h-15.313c-4.228,0-7.656,3.428-7.656,7.656c0,4.228,3.428,7.656,7.656,7.656h15.313
				c4.228,0,7.656-3.428,7.656-7.656C183.75,187.177,180.322,183.749,176.094,183.749z"/>
		</g>
	</g>
</g>
<g>
</g>
<g>
</g>
<g>
</g>
<g>
</g>
<g>
</g>
<g>
</g>
<g>
</g>
<g>
</g>
<g>
</g>
<g>
</g>
<g>
</g>
<g>
</g>
<g>
</g>
<g>
</g>
<g>
</g>
</svg>
