<?xml version="1.0" encoding="iso-8859-1"?>
<!-- Generator: Adobe Illustrator 19.0.0, SVG Export Plug-In . SVG Version: 6.00 Build 0)  -->
<svg version="1.1" id="Capa_1" xmlns="http://www.w3.org/2000/svg" xmlns:xlink="http://www.w3.org/1999/xlink" x="0px" y="0px"
	 viewBox="0 0 59 59" style="enable-background:new 0 0 59 59;" xml:space="preserve">
<path d="M54,8h-1V4c0-1.654-1.346-3-3-3s-3,1.346-3,3v4h-1v9h1v5h2v12c0,8.344-4.467,15.664-11.135,19.696
	C40.426,50.858,42,47.114,42,43c0-8.822-7.178-16-16-16s-16,7.178-16,16c0,2.893,0.783,5.601,2.131,7.945
	C8.959,47.548,7,43.004,7,38V25c0-7.039,5.227-12.865,12-13.84V13h1v1.5c0,1.93,1.57,3.5,3.5,3.5s3.5-1.57,3.5-3.5V13h1V7h-9v2.139
	c-5.168,0.649-9.577,3.762-12,8.132V9h4V8h1.5C14.43,8,16,6.43,16,4.5S14.43,1,12.5,1H11V0H5v3v6v30h0.023
	C5.547,50.117,14.756,59,26,59c13.785,0,25-11.215,25-25V22h2v-5h1V8z M25,14.5c0,0.827-0.673,1.5-1.5,1.5S22,15.327,22,14.5V13h3
	V14.5z M12.5,3C13.327,3,14,3.673,14,4.5S13.327,6,12.5,6H11V3H12.5z M24.877,56.943C19.337,56.379,15,51.686,15,46
	c0-6.065,4.935-11,11-11s11,4.935,11,11s-4.935,11-11,11C25.621,57,25.251,56.965,24.877,56.943z M26,29c7.72,0,14,6.28,14,14
	c0,2.137-0.496,4.156-1.356,5.971C38.869,48.015,39,47.023,39,46c0-7.168-5.832-13-13-13s-13,5.832-13,13
	c0,1.023,0.131,2.015,0.356,2.971C12.496,47.156,12,45.137,12,43C12,35.28,18.28,29,26,29z M49,4c0-0.552,0.448-1,1-1s1,0.448,1,1v4
	h-2V4z"/>
<g>
</g>
<g>
</g>
<g>
</g>
<g>
</g>
<g>
</g>
<g>
</g>
<g>
</g>
<g>
</g>
<g>
</g>
<g>
</g>
<g>
</g>
<g>
</g>
<g>
</g>
<g>
</g>
<g>
</g>
</svg>
