<?xml version="1.0" encoding="iso-8859-1"?>
<!-- Generator: Adobe Illustrator 16.0.0, SVG Export Plug-In . SVG Version: 6.00 Build 0)  -->
<!DOCTYPE svg PUBLIC "-//W3C//DTD SVG 1.1//EN" "http://www.w3.org/Graphics/SVG/1.1/DTD/svg11.dtd">
<svg version="1.1" id="Capa_1" xmlns="http://www.w3.org/2000/svg" xmlns:xlink="http://www.w3.org/1999/xlink" x="0px" y="0px"
	 width="66.588px" height="66.589px" viewBox="0 0 66.588 66.589" style="enable-background:new 0 0 66.588 66.589;"
	 xml:space="preserve">
<g>
	<g>
		<path d="M56.657,12.026c0.082-0.232,0.135-0.478,0.135-0.738V2.244C56.792,1.005,55.788,0,54.548,0H12.041
			c-1.239,0-2.244,1.005-2.244,2.244v9.044c0,0.26,0.053,0.505,0.135,0.738c0.009,0.025,0.014,0.051,0.023,0.076
			c0.088,0.225,0.214,0.428,0.365,0.61c0.015,0.018,0.019,0.04,0.033,0.056l10.07,11.487v40.09c0,1.239,1.004,2.244,2.244,2.244
			H43.92c1.238,0,2.244-1.005,2.244-2.244v-40.09l10.068-11.487c0.016-0.016,0.02-0.038,0.033-0.056
			c0.15-0.183,0.278-0.386,0.365-0.61C56.643,12.078,56.649,12.051,56.657,12.026z M52.303,4.489v4.556H14.286V4.489H52.303z
			 M42.235,21.931c-0.359,0.411-0.558,0.936-0.558,1.48v38.69H24.912v-38.69c0-0.545-0.198-1.07-0.557-1.48l-7.362-8.398h32.603
			L42.235,21.931z"/>
		<path d="M33.294,31.051c-1.239,0-2.244,1.005-2.244,2.244v10.229c0,1.238,1.005,2.244,2.244,2.244s2.243-1.006,2.243-2.244V33.295
			C35.538,32.056,34.534,31.051,33.294,31.051z"/>
	</g>
</g>
<g>
</g>
<g>
</g>
<g>
</g>
<g>
</g>
<g>
</g>
<g>
</g>
<g>
</g>
<g>
</g>
<g>
</g>
<g>
</g>
<g>
</g>
<g>
</g>
<g>
</g>
<g>
</g>
<g>
</g>
</svg>
