<?xml version="1.0" encoding="iso-8859-1"?>
<!-- Generator: Adobe Illustrator 16.0.0, SVG Export Plug-In . SVG Version: 6.00 Build 0)  -->
<!DOCTYPE svg PUBLIC "-//W3C//DTD SVG 1.1//EN" "http://www.w3.org/Graphics/SVG/1.1/DTD/svg11.dtd">
<svg version="1.1" id="Capa_1" xmlns="http://www.w3.org/2000/svg" xmlns:xlink="http://www.w3.org/1999/xlink" x="0px" y="0px"
	 width="95.437px" height="95.438px" viewBox="0 0 95.437 95.438" style="enable-background:new 0 0 95.437 95.438;"
	 xml:space="preserve">
<g>
	<g>
		<path d="M69.351,0H26.086c-4.211,0-7.635,3.422-7.635,7.635v80.168c0,4.213,3.424,7.635,7.635,7.635h43.265
			c4.214,0,7.636-3.422,7.636-7.635V7.635C76.987,3.422,73.565,0,69.351,0z M40.721,6.973c0-1.043,0.839-1.883,1.883-1.883h10.232
			c1.043,0,1.883,0.84,1.883,1.883v0.051c0,1.043-0.84,1.883-1.883,1.883H42.604c-1.044,0-1.883-0.84-1.883-1.883V6.973z
			 M47.719,92.574c-2.277,0-4.136-1.857-4.136-4.136s1.858-4.135,4.136-4.135s4.136,1.854,4.136,4.135
			C51.855,90.717,49.997,92.574,47.719,92.574z M70.624,80.168c0,0.699-0.571,1.271-1.272,1.271H26.086
			c-0.699,0-1.272-0.571-1.272-1.271V15.27c0-0.701,0.573-1.273,1.272-1.273h43.265c0.701,0,1.272,0.572,1.272,1.273V80.168z"/>
		<path d="M62.99,41.992c-1.656,0-3.059,1.068-3.584,2.545h-3.523c-0.207-1.33-0.729-2.555-1.492-3.6l2.492-2.49
			c0.506,0.242,1.06,0.383,1.635,0.383c1.021,0,1.979-0.398,2.699-1.119c1.487-1.488,1.487-3.91,0-5.396
			c-1.439-1.443-3.955-1.443-5.398,0c-1.171,1.17-1.405,2.912-0.732,4.33l-2.492,2.494c-1.045-0.764-2.27-1.285-3.601-1.492v-3.522
			c1.479-0.527,2.546-1.928,2.546-3.584c0-2.105-1.713-3.816-3.818-3.816c-2.104,0-3.817,1.711-3.817,3.816
			c0,1.656,1.067,3.057,2.545,3.584v3.522c-1.331,0.207-2.555,0.729-3.598,1.492l-2.493-2.494c0.671-1.418,0.438-3.16-0.734-4.33
			c-1.441-1.443-3.958-1.443-5.399,0c-1.488,1.486-1.488,3.908,0,5.396c0.721,0.721,1.682,1.119,2.7,1.119
			c0.576,0,1.128-0.141,1.635-0.383l2.492,2.49c-0.764,1.045-1.285,2.27-1.492,3.6h-3.524c-0.527-1.477-1.927-2.545-3.584-2.545
			c-2.104,0-3.816,1.713-3.816,3.816c0,2.104,1.713,3.818,3.816,3.818c1.657,0,3.057-1.066,3.584-2.546h3.524
			c0.207,1.33,0.729,2.556,1.492,3.601l-2.505,2.504c-1.414-0.639-3.193-0.403-4.322,0.724c-1.488,1.487-1.488,3.908,0,5.396
			c0.721,0.724,1.682,1.119,2.7,1.119s1.979-0.396,2.699-1.119c1.173-1.17,1.405-2.912,0.734-4.33l2.493-2.494
			c1.043,0.763,2.267,1.285,3.598,1.492v3.522c-1.478,0.527-2.545,1.929-2.545,3.584c0,2.104,1.714,3.818,3.817,3.818
			c2.105,0,3.818-1.715,3.818-3.818c0-1.655-1.066-3.057-2.546-3.584v-3.522c1.331-0.207,2.556-0.729,3.601-1.492l2.492,2.494
			c-0.673,1.418-0.438,3.16,0.732,4.33c0.725,0.724,1.684,1.119,2.699,1.119c1.021,0,1.979-0.396,2.699-1.119
			c1.487-1.487,1.487-3.908,0-5.396c-1.127-1.127-2.908-1.361-4.32-0.724l-2.506-2.504c0.765-1.045,1.285-2.271,1.492-3.601h3.523
			c0.525,1.479,1.928,2.546,3.584,2.546c2.105,0,3.816-1.714,3.816-3.818C66.806,43.705,65.095,41.992,62.99,41.992z M57.616,34.114
			c0.242-0.24,0.562-0.373,0.899-0.373c0.341,0,0.66,0.133,0.898,0.373c0.497,0.496,0.497,1.303,0,1.799
			c-0.479,0.48-1.316,0.48-1.799,0C57.121,35.416,57.121,34.61,57.616,34.114z M37.822,35.912c-0.482,0.48-1.317,0.48-1.8,0
			c-0.495-0.496-0.495-1.303,0-1.799c0.242-0.24,0.561-0.373,0.9-0.373c0.339,0,0.658,0.133,0.899,0.373
			C38.316,34.61,38.316,35.416,37.822,35.912z M32.448,47.082c-0.701,0-1.271-0.57-1.271-1.273c0-0.701,0.57-1.271,1.271-1.271
			c0.703,0,1.272,0.57,1.272,1.271C33.721,46.512,33.152,47.082,32.448,47.082z M37.822,57.506c-0.482,0.48-1.317,0.48-1.8,0
			c-0.495-0.494-0.495-1.303,0-1.801c0.242-0.238,0.561-0.371,0.9-0.371c0.339,0,0.658,0.133,0.899,0.371
			C38.316,56.203,38.316,57.012,37.822,57.506z M57.616,55.705c0.242-0.238,0.562-0.371,0.899-0.371c0.341,0,0.66,0.133,0.898,0.371
			c0.497,0.498,0.497,1.307,0,1.801c-0.479,0.48-1.316,0.48-1.799,0C57.121,57.012,57.121,56.203,57.616,55.705z M47.719,29.268
			c0.702,0,1.272,0.57,1.272,1.271c0,0.703-0.57,1.273-1.272,1.273c-0.701,0-1.272-0.57-1.272-1.273
			C46.447,29.838,47.018,29.268,47.719,29.268z M47.719,62.352c-0.701,0-1.272-0.57-1.272-1.271c0-0.702,0.571-1.272,1.272-1.272
			c0.702,0,1.272,0.57,1.272,1.272C48.991,61.781,48.421,62.352,47.719,62.352z M47.719,51.535c-3.157,0-5.726-2.568-5.726-5.728
			c0-3.154,2.568-5.725,5.726-5.725c3.158,0,5.728,2.57,5.728,5.725C53.447,48.967,50.876,51.535,47.719,51.535z M62.99,47.082
			c-0.702,0-1.271-0.57-1.271-1.273c0-0.701,0.569-1.271,1.271-1.271s1.273,0.57,1.273,1.271
			C64.263,46.512,63.692,47.082,62.99,47.082z"/>
	</g>
</g>
<g>
</g>
<g>
</g>
<g>
</g>
<g>
</g>
<g>
</g>
<g>
</g>
<g>
</g>
<g>
</g>
<g>
</g>
<g>
</g>
<g>
</g>
<g>
</g>
<g>
</g>
<g>
</g>
<g>
</g>
</svg>
