<?xml version="1.0" encoding="iso-8859-1"?>
<!-- Generator: Adobe Illustrator 16.0.0, SVG Export Plug-In . SVG Version: 6.00 Build 0)  -->
<!DOCTYPE svg PUBLIC "-//W3C//DTD SVG 1.1//EN" "http://www.w3.org/Graphics/SVG/1.1/DTD/svg11.dtd">
<svg version="1.1" id="Capa_1" xmlns="http://www.w3.org/2000/svg" xmlns:xlink="http://www.w3.org/1999/xlink" x="0px" y="0px"
	 width="462.953px" height="462.954px" viewBox="0 0 462.953 462.954" style="enable-background:new 0 0 462.953 462.954;"
	 xml:space="preserve">
<g>
	<g>
		<path d="M307.779,0H155.176c-28.502,0-51.706,23.196-51.706,51.699V411.26c0,28.503,23.204,51.693,51.706,51.693h152.604
			c28.513,0,51.704-23.19,51.704-51.693V51.707C359.479,23.196,336.292,0,307.779,0z M347.626,411.265
			c0,21.982-17.874,39.847-39.852,39.847H155.176c-21.977,0-39.857-17.874-39.857-39.847V51.707c0-21.978,17.88-39.85,39.857-39.85
			h152.604c21.978,0,39.857,17.88,39.857,39.85v359.559H347.626z"/>
		<path d="M134.968,224.866h193.021c1.636,0,2.961-1.326,2.961-2.963V74.735c0-1.635-1.325-2.963-2.961-2.963H134.968
			c-1.635,0-2.963,1.328-2.963,2.963v147.167C132.005,223.54,133.325,224.866,134.968,224.866z M137.929,77.698h187.096v141.244
			H137.929V77.698z"/>
		<path d="M122.651,252.036v135.53c0,22.771,18.524,41.295,41.294,41.295H299.01c22.77,0,41.294-18.524,41.294-41.295v-135.53
			c0-1.636-1.325-2.966-2.96-2.966H125.615C123.979,249.07,122.651,250.4,122.651,252.036z M334.378,378.847
			c-2.844,0.574-8.033,1.564-15.143,2.707c-0.244-8.201-0.396-16.575-0.473-24.71c8.109-1.325,13.554-2.427,15.615-2.854V378.847z
			 M325.318,384.55v11.786c0,4.184-2.3,6.479-5.047,7.764c-0.381-5.875-0.676-12.116-0.904-18.564
			C321.541,385.19,323.511,384.86,325.318,384.55z M334.378,349.954c-0.584,0.127-6.205,1.33-15.641,2.895
			c-0.061-8.729-0.045-17.036,0.011-24.404c8.124-1.336,13.578-2.428,15.63-2.854V349.954z M334.378,321.547
			c-0.574,0.127-6.19,1.325-15.6,2.885c0.106-11.994,0.3-20.865,0.36-23.664c6.921-1.106,12.075-2.062,15.239-2.686V321.547
			L334.378,321.547z M166.898,254.996h129.15v13.7c0,7.541-8.5,13.686-18.945,13.686h-24.41V265.71c0-4.657-3.783-8.44-8.439-8.44
			h-27.37c-4.654,0-8.438,3.794-8.438,8.44v16.671H185.86c-10.446,0-18.944-6.145-18.944-13.686v-13.7H166.898z M246.768,265.715
			v25.101c0,1.392-1.128,2.514-2.514,2.514h-27.37c-1.392,0-2.514-1.133-2.514-2.514v-25.101c0-1.392,1.13-2.509,2.514-2.509h27.37
			C245.64,263.197,246.768,264.324,246.768,265.715z M128.578,254.996h32.405v13.7c0,10.816,11.154,19.606,24.87,19.606h22.584
			v2.509c0,4.651,3.786,8.434,8.437,8.434h27.375c4.651,0,8.435-3.782,8.435-8.434v-2.509h24.415c13.71,0,24.866-8.8,24.866-19.606
			v-13.7h32.408v37.06c-10.029,2.025-51.598,9.76-102.916,10.049c-51.412,0.213-92.935-7.901-102.88-10.023V254.996L128.578,254.996
			z M314.782,329.073c-0.051,7.398-0.066,15.707,0,24.415c-4.515,0.711-9.709,1.458-15.504,2.204
			c-0.07-8.673-0.056-17.001-0.005-24.43C305.048,330.531,310.237,329.779,314.782,329.073z M299.304,327.281
			c0.092-11.192,0.26-19.805,0.346-23.745c5.743-0.711,10.913-1.447,15.523-2.143c-0.076,3.393-0.254,12.07-0.355,23.684
			C310.298,325.788,305.093,326.54,299.304,327.281z M314.817,357.474c0.086,8.146,0.229,16.514,0.482,24.699
			c-4.575,0.701-9.729,1.438-15.493,2.153c-0.249-8.165-0.411-16.509-0.487-24.664C305.093,358.932,310.277,358.185,314.817,357.474
			z M315.442,386.145c0.238,6.651,0.548,13.116,0.949,19.158c-0.848,0.147-1.66,0.27-2.387,0.315l-13.152,0.949
			c-0.381-5.778-0.67-11.928-0.903-18.266C305.692,387.577,310.852,386.845,315.442,386.145z M295.313,331.759
			c-0.046,7.444-0.057,15.772,0.015,24.436c-5.799,0.706-12.142,1.386-18.896,1.985c-0.025-8.744,0.041-17.067,0.143-24.461
			C283.258,333.121,289.55,332.456,295.313,331.759z M276.636,329.753c0.184-11.653,0.447-20.373,0.554-23.871
			c6.581-0.569,12.761-1.204,18.494-1.874c-0.091,4.28-0.243,12.908-0.34,23.78C289.601,328.484,283.318,329.155,276.636,329.753z
			 M295.379,360.161c0.087,8.155,0.233,16.488,0.503,24.644c-5.86,0.69-12.228,1.355-19.007,1.939
			c-0.239-8.216-0.371-16.523-0.417-24.598C283.212,361.542,289.555,360.872,295.379,360.161z M296.019,388.759
			c0.229,6.282,0.519,12.365,0.899,18.083l-19.094,1.376c-0.355-5.631-0.624-11.512-0.833-17.524
			C283.771,390.121,290.139,389.456,296.019,388.759z M272.614,334.07c-0.102,7.409-0.157,15.717-0.132,24.456
			c-6.053,0.508-12.411,0.934-19.032,1.264c-0.127-8.754-0.162-17.092-0.157-24.45C260.016,335.009,266.48,334.573,272.614,334.07z
			 M253.303,331.383c0.03-13.004,0.178-22.135,0.214-23.927c6.84-0.32,13.436-0.736,19.707-1.234
			c-0.122,3.854-0.371,12.513-0.543,23.872C266.526,330.607,260.046,331.048,253.303,331.383z M272.513,362.486
			c0.051,8.079,0.173,16.382,0.427,24.599c-5.972,0.477-12.259,0.878-18.763,1.178c-0.305-8.191-0.514-16.479-0.655-24.527
			C260.117,363.411,266.47,362.984,272.513,362.486z M273.062,391.044c0.203,5.987,0.482,11.848,0.838,17.464l-18.621,1.335
			c-0.381-5.646-0.69-11.577-0.939-17.62C260.813,391.913,267.095,391.517,273.062,391.044z M236.165,335.918
			c4.474-0.087,8.881-0.208,13.177-0.396c-0.005,7.363,0.041,15.696,0.157,24.451c-4.342,0.188-8.8,0.314-13.334,0.4
			C236.235,351.645,236.221,343.317,236.165,335.918z M249.342,331.582c-4.296,0.178-8.719,0.305-13.208,0.392
			c-0.116-12.111-0.31-21.095-0.381-24.004c4.703-0.066,9.309-0.183,13.803-0.36C249.515,310.005,249.378,319.065,249.342,331.582z
			 M236.134,364.334c4.565-0.086,9.069-0.213,13.437-0.406c0.138,8.044,0.351,16.32,0.66,24.507
			c-4.748,0.192-9.607,0.314-14.568,0.386C235.916,380.691,236.058,372.399,236.134,364.334z M250.378,392.38
			c0.259,6.089,0.568,12.055,0.955,17.742l-4.591,0.33c-3.433,0.244-7.678,0.396-12.101,0.442
			c0.371-5.759,0.655-11.848,0.878-18.129C240.583,392.7,245.533,392.573,250.378,392.38z M231.465,388.886
			c-0.901,0-1.8,0.006-2.686,0.006c-5.489,0-10.821-0.117-16.059-0.29c0.307-8.119,0.521-16.336,0.655-24.334
			c4.202,0.112,8.47,0.184,12.854,0.184c0.947,0,1.909,0,2.859-0.011c1.051,0,2.054-0.035,3.098-0.046
			c-0.081,8.074-0.221,16.367-0.482,24.491C231.633,388.876,231.551,388.886,231.465,388.886z M231.569,392.837
			c-0.221,6.271-0.513,12.345-0.879,18.083c-5.908,0-11.809-0.173-16.272-0.508l-2.798-0.214c0.389-5.657,0.704-11.593,0.958-17.646
			c5.284,0.172,10.671,0.299,16.219,0.299c0.891,0,1.808,0,2.702-0.01C231.513,392.837,231.536,392.837,231.569,392.837z
			 M229.073,360.491c-0.957,0-1.904,0.01-2.844,0.01c-4.37,0-8.612-0.07-12.784-0.183c0.127-8.744,0.165-17.077,0.165-24.45
			c4.133,0.106,8.312,0.178,12.619,0.178c0.947,0,1.909,0,2.859-0.011c1.059-0.01,2.077-0.04,3.128-0.045
			c0.056,7.398,0.063,15.726,0,24.455C231.166,360.456,230.14,360.486,229.073,360.491z M213.39,307.766
			c5.018,0.162,10.113,0.274,15.366,0.274c0.901,0,1.826,0,2.734-0.011c0.109,0,0.206,0,0.315,0
			c0.071,2.874,0.262,11.873,0.381,24.009c-1.051,0.005-2.064,0.036-3.113,0.046c-0.957,0-1.904,0.01-2.844,0.01
			c-4.306,0-8.493-0.07-12.626-0.178C213.588,319.573,213.438,310.477,213.39,307.766z M190.084,387.369
			c0.277-8.064,0.475-16.225,0.586-24.172c5.972,0.406,12.235,0.731,18.763,0.944c-0.142,7.998-0.35,16.215-0.658,24.334
			C202.284,388.207,196.041,387.826,190.084,387.369z M208.627,392.416c-0.251,5.997-0.562,11.878-0.939,17.479l-18.613-1.447
			c0.348-5.515,0.64-11.258,0.868-17.128C195.899,391.776,202.132,392.157,208.627,392.416z M190.575,306.557
			c6.02,0.452,12.316,0.823,18.867,1.087c0.038,2.315,0.18,11.461,0.213,24.151c-6.551-0.214-12.84-0.539-18.827-0.96
			C190.788,319.471,190.653,310.666,190.575,306.557z M190.725,359.237c0.111-8.715,0.145-17.017,0.127-24.44
			c5.989,0.411,12.268,0.73,18.819,0.944c0,7.373-0.048,15.706-0.167,24.461C202.962,359.978,196.699,359.658,190.725,359.237z
			 M167.208,385.109c0.259-7.952,0.427-16.052,0.505-23.983c5.871,0.665,12.22,1.279,19.007,1.803
			c-0.12,7.932-0.3,16.076-0.584,24.125C179.388,386.475,173.061,385.815,167.208,385.109z M185.994,391.004
			c-0.221,5.875-0.513,11.628-0.86,17.143l-18.969-1.478c0.386-5.596,0.678-11.526,0.909-17.6
			C172.926,389.77,179.248,390.435,185.994,391.004z M167.279,304.292c5.987,0.711,12.434,1.382,19.34,1.95
			c0.071,3.849,0.203,12.695,0.259,24.318c-6.873-0.523-13.264-1.152-19.18-1.828C167.586,317.612,167.396,308.796,167.279,304.292z
			 M167.751,357.149c0.071-8.663,0.056-16.96-0.007-24.43c5.911,0.67,12.316,1.284,19.159,1.808
			c0.015,7.419-0.018,15.727-0.119,24.44C179.975,358.45,173.629,357.825,167.751,357.149z M145.167,381.975
			c0.599-7.373,1.003-15.478,1.247-23.719c5.032,0.792,10.854,1.615,17.356,2.396c-0.086,7.922-0.236,16.021-0.505,23.979
			C156.385,383.752,150.357,382.833,145.167,381.975z M163.138,388.592c-0.229,6.139-0.521,12.126-0.909,17.777l-8.998-0.695
			c-7.394-0.543-13.642-5.561-13.642-10.948v-9.688c1.074,0.193,2.1,0.371,3.278,0.568c0.007,0,0.015,0.016,0.015,0.016
			c0.033,0,0.063,0,0.089,0.01C148.587,386.561,155.382,387.607,163.138,388.592z M146.414,301.383
			c4.946,0.802,10.587,1.64,16.915,2.438c0.109,4.199,0.307,13.091,0.434,24.455c-6.375-0.771-12.055-1.59-16.978-2.361
			C146.721,314.926,146.526,305.968,146.414,301.383z M146.526,354.286c0.195-8.399,0.266-16.748,0.259-24.375
			c4.946,0.777,10.659,1.574,17.001,2.342c0.063,7.454,0.079,15.762,0.018,24.435C157.309,355.895,151.518,355.073,146.526,354.286z
			 M128.578,298.138c2.968,0.614,7.629,1.544,13.871,2.6c0.111,4.226,0.317,13.325,0.373,24.537
			c-6.708-1.122-11.535-2.093-14.244-2.671V298.138L128.578,298.138z M128.578,326.641c2.96,0.624,7.772,1.563,14.267,2.641
			c0.015,7.596-0.056,15.955-0.247,24.363c-6.581-1.106-11.344-2.062-14.013-2.63v-24.374H128.578z M128.578,355.052
			c2.915,0.604,7.591,1.533,13.911,2.579c-0.239,8.227-0.632,16.326-1.216,23.684c-5.84-1.016-10.199-1.894-12.688-2.432v-23.831
			H128.578z M128.578,382.92c1.34,0.284,2.994,0.619,5.093,1.021v10.775c0,8.516,8.579,16.077,19.119,16.858l61.169,4.748
			c4.661,0.351,10.831,0.523,16.978,0.523c5.868,0,11.722-0.158,16.232-0.478l67.272-4.834c10.527-0.752,16.809-6.429,16.809-15.193
			v-12.685c0-0.057-0.03-0.112-0.03-0.163c1.219-0.233,2.274-0.437,3.158-0.609v4.692c0,19.504-15.863,35.368-35.368,35.368H163.936
			c-19.504,0-35.368-15.864-35.368-35.368v-4.656H128.578z"/>
		<path d="M139.638,265.939h3.42c1.635,0,2.963-1.325,2.963-2.966c0-1.63-1.328-2.961-2.963-2.961h-3.42
			c-3.58,0-6.394,3.707-6.394,8.44v6.499c0,4.733,2.806,8.435,6.394,8.435h3.42c1.635,0,2.963-1.325,2.963-2.96
			s-1.328-2.961-2.963-2.961l-3.098,0.076c-0.198-0.142-0.797-1.051-0.797-2.59v-6.499
			C139.178,266.909,139.77,265.995,139.638,265.939z"/>
		<path d="M315.041,265.939l3.098-0.081c0.198,0.142,0.797,1.051,0.797,2.595v6.499c0,1.539-0.594,2.458-0.467,2.514h-3.428
			c-1.636,0-2.966,1.326-2.966,2.961s1.33,2.96,2.966,2.96h3.428c3.58,0,6.393-3.701,6.393-8.435v-6.499
			c0-4.733-2.808-8.44-6.393-8.44h-3.428c-1.636,0-2.966,1.331-2.966,2.961S313.405,265.939,315.041,265.939z"/>
		<path d="M314.178,269.042c1.468,0,2.655,1.188,2.655,2.655s-1.188,2.656-2.655,2.656c-1.463,0-2.65-1.188-2.65-2.656
			S312.715,269.042,314.178,269.042z"/>
		<path d="M180.02,270.037h16.772c1.635,0,2.963-1.325,2.963-2.96c0-1.636-1.328-2.961-2.963-2.961H180.02
			c-1.635,0-2.963,1.325-2.963,2.961C177.057,268.711,178.377,270.037,180.02,270.037z"/>
		<path d="M263.54,270.037h16.758c1.635,0,2.96-1.325,2.96-2.96c0-1.636-1.325-2.961-2.96-2.961H263.54
			c-1.635,0-2.961,1.325-2.961,2.961C260.579,268.711,261.905,270.037,263.54,270.037z"/>
		<path d="M202.899,44.549h57.132c2.56,0,4.646-2.077,4.646-4.639c0-2.552-2.087-4.629-4.646-4.629h-57.132
			c-2.552,0-4.628,2.077-4.628,4.629C198.271,42.472,200.347,44.549,202.899,44.549z M202.899,37.257h57.132
			c1.478,0,2.671,1.193,2.671,2.653c0,1.462-1.193,2.663-2.671,2.663h-57.132c-1.468,0-2.653-1.193-2.653-2.663
			C200.246,38.443,201.437,37.257,202.899,37.257z"/>
		<circle cx="206.542" cy="39.91" r="1.328"/>
		<circle cx="210.43" cy="39.91" r="1.328"/>
		<circle cx="214.299" cy="39.91" r="1.328"/>
		<circle cx="218.179" cy="39.91" r="1.328"/>
		<circle cx="222.05" cy="39.91" r="1.328"/>
		<circle cx="225.92" cy="39.91" r="1.328"/>
		<circle cx="229.792" cy="39.91" r="1.328"/>
		<circle cx="233.671" cy="39.91" r="1.328"/>
		<circle cx="237.541" cy="39.91" r="1.328"/>
		<path d="M241.426,38.583c0.736,0,1.33,0.597,1.33,1.328c0,0.733-0.594,1.328-1.33,1.328c-0.731,0-1.325-0.594-1.325-1.328
			C240.101,39.179,240.694,38.583,241.426,38.583z"/>
		<path d="M245.3,38.583c0.731,0,1.325,0.597,1.325,1.328c0,0.733-0.594,1.328-1.325,1.328c-0.736,0-1.33-0.594-1.33-1.328
			C243.97,39.179,244.563,38.583,245.3,38.583z"/>
		<circle cx="249.169" cy="39.91" r="1.328"/>
		<circle cx="253.049" cy="39.91" r="1.328"/>
		<path d="M256.934,38.583c0.736,0,1.33,0.597,1.33,1.328c0,0.733-0.594,1.328-1.33,1.328c-0.731,0-1.325-0.594-1.325-1.328
			C255.608,39.179,256.202,38.583,256.934,38.583z"/>
	</g>
</g>
<g>
</g>
<g>
</g>
<g>
</g>
<g>
</g>
<g>
</g>
<g>
</g>
<g>
</g>
<g>
</g>
<g>
</g>
<g>
</g>
<g>
</g>
<g>
</g>
<g>
</g>
<g>
</g>
<g>
</g>
</svg>
