<?xml version="1.0" encoding="iso-8859-1"?>
<!-- Generator: Adobe Illustrator 19.0.0, SVG Export Plug-In . SVG Version: 6.00 Build 0)  -->
<svg version="1.1" id="Layer_1" xmlns="http://www.w3.org/2000/svg" xmlns:xlink="http://www.w3.org/1999/xlink" x="0px" y="0px"
	 viewBox="0 0 512 512" style="enable-background:new 0 0 512 512;" xml:space="preserve">
<g>
	<g>
		<path d="M305.575,300.394v-10.468c0-27.336-22.239-49.575-49.575-49.575s-49.575,22.238-49.575,49.575v10.468
			c-5.285,1.697-9.111,6.648-9.111,12.497v63.782c0,7.249,5.878,13.128,13.128,13.128h91.116c7.249,0,13.128-5.879,13.128-13.128
			v-63.782C314.687,307.042,310.86,302.092,305.575,300.394z M232.682,289.926c0-12.858,10.461-23.318,23.318-23.318
			c12.858,0,23.318,10.461,23.318,23.318v9.837h-46.637V289.926z M288.431,363.545h-64.86v-37.526h64.86V363.545z"/>
	</g>
</g>
<g>
	<g>
		<path d="M331.487,119.715V13.128C331.487,5.879,325.608,0,318.359,0H193.641c-7.251,0-13.128,5.879-13.128,13.128v106.587
			c-28.143,6.35-49.231,31.535-49.231,61.569v267.586c0,34.811,28.32,63.131,63.131,63.131h123.175
			c34.809,0,63.13-28.32,63.13-63.131V181.283C380.718,151.249,359.63,126.065,331.487,119.715z M206.769,26.256h98.462v91.897
			h-36.103V68.923c0-7.249-5.878-13.128-13.128-13.128c-7.251,0-13.128,5.879-13.128,13.128v49.231h-36.103V26.256z
			 M354.462,448.869c0,20.332-16.542,36.875-36.873,36.875H194.413c-20.333,0-36.875-16.543-36.875-36.875V181.283
			c0-20.332,16.542-36.873,36.875-36.873h123.175c20.332,0,36.873,16.542,36.873,36.873V448.869z"/>
	</g>
</g>
<g>
</g>
<g>
</g>
<g>
</g>
<g>
</g>
<g>
</g>
<g>
</g>
<g>
</g>
<g>
</g>
<g>
</g>
<g>
</g>
<g>
</g>
<g>
</g>
<g>
</g>
<g>
</g>
<g>
</g>
</svg>
